<svg id="visual" viewBox="0 0 900 600" width="900" height="600" xmlns="http://www.w3.org/2000/svg" xmlns:xlink="http://www.w3.org/1999/xlink" version="1.1"><rect x="0" y="0" width="900" height="600" fill="#ffffff"></rect><defs><linearGradient id="grad1_0" x1="33.3%" y1="100%" x2="100%" y2="0%"><stop offset="20%" stop-color="#fcaf3c" stop-opacity="1"></stop><stop offset="80%" stop-color="#fcaf3c" stop-opacity="1"></stop></linearGradient></defs><defs><linearGradient id="grad1_1" x1="33.3%" y1="100%" x2="100%" y2="0%"><stop offset="20%" stop-color="#fcaf3c" stop-opacity="1"></stop><stop offset="80%" stop-color="#ffc980" stop-opacity="1"></stop></linearGradient></defs><defs><linearGradient id="grad1_2" x1="33.3%" y1="100%" x2="100%" y2="0%"><stop offset="20%" stop-color="#ffe4bf" stop-opacity="1"></stop><stop offset="80%" stop-color="#ffc980" stop-opacity="1"></stop></linearGradient></defs><defs><linearGradient id="grad1_3" x1="33.3%" y1="100%" x2="100%" y2="0%"><stop offset="20%" stop-color="#ffe4bf" stop-opacity="1"></stop><stop offset="80%" stop-color="#ffffff" stop-opacity="1"></stop></linearGradient></defs><defs><linearGradient id="grad2_0" x1="0%" y1="100%" x2="66.7%" y2="0%"><stop offset="20%" stop-color="#fcaf3c" stop-opacity="1"></stop><stop offset="80%" stop-color="#fcaf3c" stop-opacity="1"></stop></linearGradient></defs><defs><linearGradient id="grad2_1" x1="0%" y1="100%" x2="66.7%" y2="0%"><stop offset="20%" stop-color="#ffc980" stop-opacity="1"></stop><stop offset="80%" stop-color="#fcaf3c" stop-opacity="1"></stop></linearGradient></defs><defs><linearGradient id="grad2_2" x1="0%" y1="100%" x2="66.7%" y2="0%"><stop offset="20%" stop-color="#ffc980" stop-opacity="1"></stop><stop offset="80%" stop-color="#ffe4bf" stop-opacity="1"></stop></linearGradient></defs><defs><linearGradient id="grad2_3" x1="0%" y1="100%" x2="66.7%" y2="0%"><stop offset="20%" stop-color="#ffffff" stop-opacity="1"></stop><stop offset="80%" stop-color="#ffe4bf" stop-opacity="1"></stop></linearGradient></defs><g transform="translate(900, 600)"><path d="M-405.6 0C-363 -52 -320.3 -104.1 -291.9 -168.5C-263.4 -232.9 -249.1 -309.7 -202.8 -351.3C-156.5 -392.9 -78.3 -399.2 0 -405.6L0 0Z" fill="#fff1df"></path><path d="M-304.2 0C-272.2 -39 -240.2 -78.1 -218.9 -126.4C-197.5 -174.7 -186.8 -232.3 -152.1 -263.5C-117.4 -294.6 -58.7 -299.4 0 -304.2L0 0Z" fill="#ffd69f"></path><path d="M-202.8 0C-181.5 -26 -160.2 -52 -145.9 -84.3C-131.7 -116.5 -124.5 -154.8 -101.4 -175.6C-78.3 -196.4 -39.1 -199.6 0 -202.8L0 0Z" fill="#ffbc5f"></path><path d="M-101.4 0C-90.7 -13 -80.1 -26 -73 -42.1C-65.8 -58.2 -62.3 -77.4 -50.7 -87.8C-39.1 -98.2 -19.6 -99.8 0 -101.4L0 0Z" fill="#fcaf3c"></path></g><g transform="translate(0, 0)"><path d="M405.6 0C399.9 79.4 394.2 158.8 351.3 202.8C308.4 246.8 228.2 255.3 163.5 283.2C98.8 311.1 49.4 358.4 0 405.6L0 0Z" fill="#fff1df"></path><path d="M304.2 0C299.9 59.6 295.6 119.1 263.5 152.1C231.3 185.1 171.2 191.5 122.6 212.4C74.1 233.3 37 268.8 0 304.2L0 0Z" fill="#ffd69f"></path><path d="M202.8 0C200 39.7 197.1 79.4 175.6 101.4C154.2 123.4 114.1 127.6 81.8 141.6C49.4 155.5 24.7 179.2 0 202.8L0 0Z" fill="#ffbc5f"></path><path d="M101.4 0C100 19.9 98.5 39.7 87.8 50.7C77.1 61.7 57.1 63.8 40.9 70.8C24.7 77.8 12.3 89.6 0 101.4L0 0Z" fill="#fcaf3c"></path></g></svg>